<svg width="28" height="30" viewBox="0 0 28 30" fill="none" xmlns="http://www.w3.org/2000/svg">
<ellipse cx="13.875" cy="14.5918" rx="13.875" ry="14.5918" fill="black"/>
<path d="M11.9865 14.6395C13.0589 14.0867 13.6187 13.2502 13.6187 11.9482C13.6187 9.3806 11.8448 8.75507 9.79776 8.75507H4.16248V21.644H9.95627C12.1281 21.644 14.1684 20.5202 14.1684 17.9017C14.1684 16.2833 13.4568 15.0868 11.9865 14.6395ZM6.78958 10.9554H9.25481C10.2025 10.9554 11.0557 11.2427 11.0557 12.4283C11.0557 13.523 10.3913 13.963 9.45378 13.963H6.78958V10.9554ZM9.59879 19.4546H6.78958V15.9051H9.65275C10.8095 15.9051 11.5413 16.4252 11.5413 17.7453C11.5413 19.0473 10.6678 19.4546 9.59879 19.4546ZM21.6889 10.7008H16.8427V9.43152H21.6889V10.7008ZM23.5875 17.1125C23.5875 14.3522 22.0902 12.05 19.3754 12.05C16.7382 12.05 14.9474 14.1885 14.9474 16.9889C14.9474 19.8947 16.6437 21.8877 19.3754 21.8877C21.4427 21.8877 22.7815 20.8839 23.4256 18.7491H21.328C21.1021 19.5456 20.1713 19.9674 19.4496 19.9674C18.0568 19.9674 17.325 19.0873 17.325 17.5926H23.5673C23.5774 17.4398 23.5875 17.2762 23.5875 17.1125ZM17.3283 15.9778C17.4059 14.7522 18.1613 13.9848 19.3012 13.9848C20.495 13.9848 21.0953 14.7413 21.1965 15.9778H17.3283Z" fill="white"/>
</svg>
