<svg width="131" height="79" viewBox="0 0 131 79" fill="none" xmlns="http://www.w3.org/2000/svg">
<line y1="-0.5" x2="62" y2="-0.5" transform="matrix(-1 -8.74228e-08 -8.74228e-08 1 65 4)" stroke="black"/>
<line y1="-0.5" x2="62" y2="-0.5" transform="matrix(-1 -8.74228e-08 -8.74228e-08 1 127 4)" stroke="black"/>
<line y1="-0.5" x2="71.4964" y2="-0.5" transform="matrix(0.866025 0.5 0.5 -0.866025 3 3.25171)" stroke="black"/>
<line x1="127.168" y1="3.68472" x2="3.32609" y2="75.1847" stroke="black"/>
<line y1="-0.5" x2="35" y2="-0.5" transform="matrix(-8.74228e-08 1 1 8.74228e-08 65 4)" stroke="black"/>
<line y1="-0.5" x2="72" y2="-0.5" transform="matrix(-8.74228e-08 1 1 8.74228e-08 4 3)" stroke="black"/>
<circle r="3" transform="matrix(1 8.74228e-08 8.74228e-08 -1 3.5 75.5)" fill="white" stroke="black"/>
<circle r="3" transform="matrix(1 8.74228e-08 8.74228e-08 -1 3.5 3.5)" fill="white" stroke="black"/>
<circle r="3" transform="matrix(1 8.74228e-08 8.74228e-08 -1 64.5 39.5)" fill="white" stroke="black"/>
<circle r="3" transform="matrix(1 8.74228e-08 8.74228e-08 -1 127.5 3.5)" fill="white" stroke="black"/>
<path d="M67.5 3.5C67.5 1.84315 66.1569 0.5 64.5 0.5C62.8431 0.5 61.5 1.84315 61.5 3.5C61.5 5.15685 62.8431 6.5 64.5 6.5C66.1569 6.5 67.5 5.15685 67.5 3.5Z" fill="white" stroke="black"/>
</svg>
