<svg width="1101" height="533" viewBox="0 0 1101 533" fill="none" xmlns="http://www.w3.org/2000/svg">
<path d="M41 2L21 35" stroke="black"/>
<path d="M41 2L62 35" stroke="black"/>
<path d="M369 2L349 35" stroke="black"/>
<path d="M369 2L389 35" stroke="black"/>
<path d="M410 2L389 35" stroke="black"/>
<path d="M410 2L430 35" stroke="black"/>
<path d="M450 2L430 35" stroke="black"/>
<path d="M450 2L471 35" stroke="black"/>
<path d="M491 2L471 35" stroke="black"/>
<path d="M491 2L511 35" stroke="black"/>
<path d="M533 2L511 35" stroke="black"/>
<path d="M533 2L552 35" stroke="black"/>
<path d="M574 2L552 35" stroke="black"/>
<path d="M574 2L594 35" stroke="black"/>
<path d="M614 2L594 35" stroke="black"/>
<path d="M614 2L635 35" stroke="black"/>
<path d="M654 2L634 35" stroke="black"/>
<path d="M654 2L675 35" stroke="black"/>
<path d="M695 2L675 35" stroke="black"/>
<path d="M695 2L715 35" stroke="black"/>
<path d="M736 1L714 36" stroke="black"/>
<path d="M736 1L755 36" stroke="black"/>
<path d="M776 1L755 36" stroke="black"/>
<path d="M776 1L796 36" stroke="black"/>
<path d="M817 1L796 36" stroke="black"/>
<path d="M817 1L837 36" stroke="black"/>
<path d="M857 1L837 36" stroke="black"/>
<path d="M857 1L877 36" stroke="black"/>
<path d="M898 1L877 36" stroke="black"/>
<path d="M898 1L918 36" stroke="black"/>
<path d="M938 1L918 36" stroke="black"/>
<path d="M938 1L959 36" stroke="black"/>
<path d="M978 1L958 36" stroke="black"/>
<path d="M978 1L999 36" stroke="black"/>
<path d="M1019 1L999 36" stroke="black"/>
<path d="M1019 1L1039 36" stroke="black"/>
<path d="M1060 1L1039 36" stroke="black"/>
<path d="M1060 1L1080 36" stroke="black"/>
<path d="M83 2L62 35" stroke="black"/>
<path d="M83 2L102 35" stroke="black"/>
<path d="M124 2L102 35" stroke="black"/>
<path d="M124 2L144 35" stroke="black"/>
<path d="M164 2L144 35" stroke="black"/>
<path d="M164 2L184 35" stroke="black"/>
<path d="M206 2L184 35" stroke="black"/>
<path d="M206 2L226 35" stroke="black"/>
<path d="M246 2L226 35" stroke="black"/>
<path d="M287 2L267 35" stroke="black"/>
<path d="M246 2L267 35" stroke="black"/>
<path d="M287 2L307 35" stroke="black"/>
<path d="M327 2L307 35" stroke="black"/>
<path d="M327 2L349 35" stroke="black"/>
<path d="M21 36H1080" stroke="black" stroke-width="2"/>
<path d="M21 1H1080" stroke="black" stroke-width="2"/>
<path d="M1080 2L1080 533" stroke="black" stroke-width="2"/>
<path d="M1100 2L1100 533" stroke="black" stroke-width="2"/>
<line x1="1080" y1="1" x2="1101" y2="1" stroke="black" stroke-width="2"/>
<line x1="1080" y1="36" x2="1100" y2="36" stroke="black" stroke-width="2"/>
<line x1="1081" y1="69" x2="1101" y2="69" stroke="black" stroke-width="2"/>
<line x1="1079.57" y1="35.7519" x2="1099.57" y2="0.751931" stroke="black"/>
<line y1="-0.5" x2="40.3113" y2="-0.5" transform="matrix(0.496139 0.868243 0.868243 -0.496139 1081 35)" stroke="black"/>
<line y1="-1" x2="20" y2="-1" transform="matrix(1 -8.74228e-08 -8.74228e-08 -1 1079 104)" stroke="black" stroke-width="2"/>
<line x1="1079.57" y1="105.752" x2="1099.57" y2="70.7519" stroke="black"/>
<line x1="1081" y1="141" x2="1101" y2="141" stroke="black" stroke-width="2"/>
<line y1="-0.5" x2="40.3113" y2="-0.5" transform="matrix(0.496139 0.868243 0.868243 -0.496139 1081 107)" stroke="black"/>
<line y1="-1" x2="20" y2="-1" transform="matrix(1 -8.74228e-08 -8.74228e-08 -1 1079 176)" stroke="black" stroke-width="2"/>
<line x1="1079.57" y1="177.752" x2="1099.57" y2="142.752" stroke="black"/>
<line x1="1081" y1="211" x2="1101" y2="211" stroke="black" stroke-width="2"/>
<line y1="-0.5" x2="40.3113" y2="-0.5" transform="matrix(0.496139 0.868243 0.868243 -0.496139 1081 177)" stroke="black"/>
<line y1="-1" x2="20" y2="-1" transform="matrix(1 -8.74228e-08 -8.74228e-08 -1 1079 246)" stroke="black" stroke-width="2"/>
<line x1="1079.57" y1="247.752" x2="1099.57" y2="212.752" stroke="black"/>
<line x1="1081" y1="282" x2="1101" y2="282" stroke="black" stroke-width="2"/>
<line y1="-0.5" x2="40.3113" y2="-0.5" transform="matrix(0.496139 0.868243 0.868243 -0.496139 1081 248)" stroke="black"/>
<line y1="-1" x2="20" y2="-1" transform="matrix(1 -8.74228e-08 -8.74228e-08 -1 1079 317)" stroke="black" stroke-width="2"/>
<line x1="1079.57" y1="318.752" x2="1099.57" y2="283.752" stroke="black"/>
<line x1="1081" y1="352" x2="1101" y2="352" stroke="black" stroke-width="2"/>
<line y1="-0.5" x2="40.3113" y2="-0.5" transform="matrix(0.496139 0.868243 0.868243 -0.496139 1081 318)" stroke="black"/>
<line y1="-1" x2="20" y2="-1" transform="matrix(1 -8.74228e-08 -8.74228e-08 -1 1079 387)" stroke="black" stroke-width="2"/>
<line x1="1079.57" y1="388.752" x2="1099.57" y2="353.752" stroke="black"/>
<line x1="1081" y1="424" x2="1101" y2="424" stroke="black" stroke-width="2"/>
<line y1="-0.5" x2="40.3113" y2="-0.5" transform="matrix(0.496139 0.868243 0.868243 -0.496139 1081 390)" stroke="black"/>
<line y1="-1" x2="20" y2="-1" transform="matrix(1 -8.74228e-08 -8.74228e-08 -1 1079 459)" stroke="black" stroke-width="2"/>
<line x1="1079.57" y1="460.752" x2="1099.57" y2="425.752" stroke="black"/>
<line x1="1081" y1="496" x2="1101" y2="496" stroke="black" stroke-width="2"/>
<line y1="-0.5" x2="40.3113" y2="-0.5" transform="matrix(0.496139 0.868243 0.868243 -0.496139 1081 462)" stroke="black"/>
<line y1="-1" x2="20" y2="-1" transform="matrix(1 -8.74228e-08 -8.74228e-08 -1 1079 531)" stroke="black" stroke-width="2"/>
<line x1="1079.57" y1="532.752" x2="1099.57" y2="497.752" stroke="black"/>
<path d="M21 2L21.0001 533" stroke="black" stroke-width="2"/>
<path d="M1 2L1.00002 533" stroke="black" stroke-width="2"/>
<line y1="-1" x2="21" y2="-1" transform="matrix(-1 0 0 1 21 2)" stroke="black" stroke-width="2"/>
<line y1="-1" x2="20" y2="-1" transform="matrix(-1 8.74228e-08 8.74228e-08 1 21 37)" stroke="black" stroke-width="2"/>
<line y1="-1" x2="20" y2="-1" transform="matrix(-1 8.74228e-08 8.74228e-08 1 20 70)" stroke="black" stroke-width="2"/>
<line y1="-0.5" x2="40.3113" y2="-0.5" transform="matrix(-0.496139 -0.868243 -0.868243 0.496139 21 36)" stroke="black"/>
<line x1="20.4341" y1="35.2481" x2="0.434123" y2="70.2481" stroke="black"/>
<line x1="22" y1="105" x2="2" y2="105" stroke="black" stroke-width="2"/>
<line y1="-0.5" x2="40.3113" y2="-0.5" transform="matrix(-0.496139 -0.868243 -0.868243 0.496139 21 106)" stroke="black"/>
<line y1="-1" x2="20" y2="-1" transform="matrix(-1 8.74228e-08 8.74228e-08 1 20 142)" stroke="black" stroke-width="2"/>
<line x1="20.4341" y1="107.248" x2="0.434123" y2="142.248" stroke="black"/>
<line x1="22" y1="177" x2="2" y2="177" stroke="black" stroke-width="2"/>
<line y1="-0.5" x2="40.3113" y2="-0.5" transform="matrix(-0.496139 -0.868243 -0.868243 0.496139 21 178)" stroke="black"/>
<line y1="-1" x2="20" y2="-1" transform="matrix(-1 8.74228e-08 8.74228e-08 1 20 212)" stroke="black" stroke-width="2"/>
<line x1="20.4341" y1="177.248" x2="0.434123" y2="212.248" stroke="black"/>
<line x1="22" y1="247" x2="2" y2="247" stroke="black" stroke-width="2"/>
<line y1="-0.5" x2="40.3113" y2="-0.5" transform="matrix(-0.496139 -0.868243 -0.868243 0.496139 21 248)" stroke="black"/>
<line y1="-1" x2="20" y2="-1" transform="matrix(-1 8.74228e-08 8.74228e-08 1 20 283)" stroke="black" stroke-width="2"/>
<line x1="20.4341" y1="248.248" x2="0.434123" y2="283.248" stroke="black"/>
<line x1="22" y1="318" x2="2" y2="318" stroke="black" stroke-width="2"/>
<line y1="-0.5" x2="40.3113" y2="-0.5" transform="matrix(-0.496139 -0.868243 -0.868243 0.496139 21 319)" stroke="black"/>
<line y1="-1" x2="20" y2="-1" transform="matrix(-1 8.74228e-08 8.74228e-08 1 20 353)" stroke="black" stroke-width="2"/>
<line x1="20.4341" y1="318.248" x2="0.434123" y2="353.248" stroke="black"/>
<line x1="22" y1="388" x2="2" y2="388" stroke="black" stroke-width="2"/>
<line y1="-0.5" x2="40.3113" y2="-0.5" transform="matrix(-0.496139 -0.868243 -0.868243 0.496139 21 389)" stroke="black"/>
<line y1="-1" x2="20" y2="-1" transform="matrix(-1 8.74228e-08 8.74228e-08 1 20 425)" stroke="black" stroke-width="2"/>
<line x1="20.4341" y1="390.248" x2="0.434123" y2="425.248" stroke="black"/>
<line x1="22" y1="460" x2="2" y2="460" stroke="black" stroke-width="2"/>
<line y1="-0.5" x2="40.3113" y2="-0.5" transform="matrix(-0.496139 -0.868243 -0.868243 0.496139 21 461)" stroke="black"/>
<line y1="-1" x2="20" y2="-1" transform="matrix(-1 8.74228e-08 8.74228e-08 1 20 497)" stroke="black" stroke-width="2"/>
<line x1="20.4341" y1="462.248" x2="0.434123" y2="497.248" stroke="black"/>
<line x1="22" y1="532" x2="2" y2="532" stroke="black" stroke-width="2"/>
<line y1="-0.5" x2="40.3113" y2="-0.5" transform="matrix(-0.496139 -0.868243 -0.868243 0.496139 21 533)" stroke="black"/>
</svg>
