<svg width="28" height="31" viewBox="0 0 28 31" fill="none" xmlns="http://www.w3.org/2000/svg">
<ellipse cx="13.875" cy="15.07" rx="13.875" ry="14.6" fill="white"/>
<path d="M13.696 0.470703C5.93604 0.470703 0 6.66634 0 14.8272C0 21.3523 3.90514 26.936 9.48311 28.9012C10.1992 29.0365 10.451 28.5717 10.451 28.1892C10.451 27.8245 10.4342 25.8122 10.4342 24.5766C10.4342 24.5766 6.51789 25.4592 5.69546 22.8232C5.69546 22.8232 5.05766 21.111 4.14012 20.6698C4.14012 20.6698 2.85892 19.746 4.22964 19.7637C4.22964 19.7637 5.62273 19.8813 6.38921 21.2817C7.61447 23.5528 9.66774 22.8997 10.4678 22.5114C10.5965 21.57 10.9601 20.9169 11.363 20.5285C8.23548 20.1638 5.08004 19.6872 5.08004 14.027C5.08004 12.4089 5.50524 11.597 6.4004 10.5614C6.25494 10.179 5.77939 8.6021 6.54587 6.56631C7.71517 6.18386 10.4062 8.15493 10.4062 8.15493C11.5252 7.82544 12.7281 7.65481 13.9198 7.65481C15.1114 7.65481 16.3143 7.82544 17.4333 8.15493C17.4333 8.15493 20.1243 6.17798 21.2936 6.56631C22.0601 8.60799 21.5846 10.179 21.4391 10.5614C22.3343 11.6028 22.8826 12.4148 22.8826 14.027C22.8826 19.7048 19.5872 20.1579 16.4598 20.5285C16.9745 20.9934 17.4109 21.8759 17.4109 23.2586C17.4109 25.2415 17.3941 27.695 17.3941 28.1775C17.3941 28.5599 17.6515 29.0247 18.362 28.8894C23.9568 26.936 27.75 21.3523 27.75 14.8272C27.75 6.66634 21.4559 0.470703 13.696 0.470703Z" fill="black"/>
</svg>
