<svg width="28" height="31" viewBox="0 0 28 31" fill="none" xmlns="http://www.w3.org/2000/svg">
<g clip-path="url(#clip0_28_112)">
<path d="M9.2817 23.3822C9.2817 23.4999 9.15302 23.594 8.99078 23.594C8.80615 23.6117 8.67747 23.5175 8.67747 23.3822C8.67747 23.2645 8.80615 23.1704 8.9684 23.1704C9.13624 23.1527 9.2817 23.2469 9.2817 23.3822ZM7.54173 23.1174C7.50257 23.2351 7.61447 23.3704 7.78231 23.4057C7.92777 23.4646 8.09562 23.4057 8.12918 23.288C8.16275 23.1704 8.05645 23.035 7.88861 22.9821C7.74314 22.9409 7.5809 22.9997 7.54173 23.1174ZM10.0146 23.0174C9.85237 23.0586 9.74047 23.1704 9.75726 23.3057C9.77404 23.4234 9.91951 23.4999 10.0873 23.4587C10.2496 23.4175 10.3615 23.3057 10.3447 23.188C10.3279 23.0762 10.1769 22.9997 10.0146 23.0174ZM13.696 0.470703C5.93604 0.470703 0 6.66634 0 14.8272C0 21.3523 3.90514 26.936 9.48311 28.9012C10.1992 29.0365 10.451 28.5717 10.451 28.1892C10.451 27.8244 10.4342 25.8122 10.4342 24.5766C10.4342 24.5766 6.51789 25.4592 5.69546 22.8232C5.69546 22.8232 5.05766 21.111 4.14012 20.6698C4.14012 20.6698 2.85892 19.746 4.22964 19.7637C4.22964 19.7637 5.62273 19.8813 6.38921 21.2817C7.61447 23.5528 9.66774 22.8997 10.4678 22.5114C10.5965 21.57 10.9601 20.9169 11.363 20.5285C8.23548 20.1638 5.08004 19.6872 5.08004 14.027C5.08004 12.4089 5.50524 11.597 6.4004 10.5614C6.25494 10.179 5.77939 8.6021 6.54587 6.56631C7.71517 6.18386 10.4062 8.15493 10.4062 8.15493C11.5252 7.82544 12.7281 7.65481 13.9198 7.65481C15.1114 7.65481 16.3143 7.82544 17.4333 8.15493C17.4333 8.15493 20.1243 6.17798 21.2936 6.56631C22.0601 8.60799 21.5846 10.179 21.4391 10.5614C22.3343 11.6028 22.8826 12.4148 22.8826 14.027C22.8826 19.7048 19.5872 20.1579 16.4598 20.5285C16.9745 20.9934 17.4109 21.8759 17.4109 23.2586C17.4109 25.2415 17.3941 27.695 17.3941 28.1775C17.3941 28.5599 17.6515 29.0247 18.362 28.8894C23.9568 26.936 27.75 21.3523 27.75 14.8272C27.75 6.66634 21.4559 0.470703 13.696 0.470703ZM5.4381 20.7639C5.36537 20.8227 5.38216 20.9581 5.47727 21.0699C5.56678 21.164 5.69546 21.2052 5.7682 21.1287C5.84093 21.0699 5.82414 20.9345 5.72903 20.8227C5.63952 20.7286 5.51084 20.6874 5.4381 20.7639ZM4.83387 20.2873C4.79471 20.3638 4.85066 20.4579 4.96255 20.5168C5.05207 20.5756 5.16396 20.558 5.20312 20.4756C5.24229 20.3991 5.18634 20.305 5.07445 20.2461C4.96255 20.2108 4.87303 20.2285 4.83387 20.2873ZM6.64657 22.3819C6.55706 22.4584 6.59062 22.6349 6.7193 22.7467C6.84798 22.8821 7.01023 22.8997 7.08296 22.8056C7.1557 22.7291 7.12213 22.5526 7.01023 22.4408C6.88715 22.3055 6.7193 22.2878 6.64657 22.3819ZM6.00877 21.517C5.91925 21.5759 5.91925 21.7288 6.00877 21.8642C6.09829 21.9995 6.24934 22.0583 6.32208 21.9995C6.41159 21.923 6.41159 21.77 6.32208 21.6347C6.24375 21.4994 6.09829 21.4405 6.00877 21.517Z" fill="black"/>
</g>
<defs>
<clipPath id="clip0_28_112">
<rect width="27.75" height="30.125" fill="white"/>
</clipPath>
</defs>
</svg>
