<svg width="1436" height="728" viewBox="0 0 1436 728" fill="none" xmlns="http://www.w3.org/2000/svg">
<g id="Imagen-principal">
<g id="Group 34">
<rect id="Rectangle 50" x="168" y="176" width="1101" height="530" fill="white"/>
<rect id="Rectangle 51" y="701" width="101" height="27" fill="white"/>
<rect id="Rectangle 52" x="1335" y="701" width="101" height="27" fill="white"/>
</g>
<g id="Viga">
<g id="Group 12">
<path id="Vector 1" d="M209 177L189 210" stroke="black"/>
<path id="Vector 1_2" d="M209 177L230 210" stroke="black"/>
<path id="Vector 4" d="M537 177L517 210" stroke="black"/>
<path id="Vector 5" d="M537 177L557 210" stroke="black"/>
<path id="Vector 6" d="M578 177L557 210" stroke="black"/>
<path id="Vector 7" d="M578 177L598 210" stroke="black"/>
<path id="Vector 8" d="M618 177L598 210" stroke="black"/>
<path id="Vector 9" d="M618 177L639 210" stroke="black"/>
<path id="Vector 10" d="M659 177L639 210" stroke="black"/>
<path id="Vector 11" d="M659 177L679 210" stroke="black"/>
<path id="Vector 12" d="M701 177L679 210" stroke="black"/>
<path id="Vector 13" d="M701 177L720 210" stroke="black"/>
<path id="Vector 14" d="M742 177L720 210" stroke="black"/>
<path id="Vector 15" d="M742 177L762 210" stroke="black"/>
<path id="Vector 16" d="M782 177L762 210" stroke="black"/>
<path id="Vector 17" d="M782 177L803 210" stroke="black"/>
<path id="Vector 18" d="M822 177L802 210" stroke="black"/>
<path id="Vector 19" d="M822 177L843 210" stroke="black"/>
<path id="Vector 20" d="M863 177L843 210" stroke="black"/>
<path id="Vector 21" d="M863 177L883 210" stroke="black"/>
<path id="Vector 22" d="M904 176L882 211" stroke="black"/>
<path id="Vector 23" d="M904 176L923 211" stroke="black"/>
<path id="Vector 24" d="M944 176L923 211" stroke="black"/>
<path id="Vector 25" d="M944 176L964 211" stroke="black"/>
<path id="Vector 26" d="M985 176L964 211" stroke="black"/>
<path id="Vector 27" d="M985 176L1005 211" stroke="black"/>
<path id="Vector 28" d="M1025 176L1005 211" stroke="black"/>
<path id="Vector 29" d="M1025 176L1045 211" stroke="black"/>
<path id="Vector 30" d="M1066 176L1045 211" stroke="black"/>
<path id="Vector 31" d="M1066 176L1086 211" stroke="black"/>
<path id="Vector 32" d="M1106 176L1086 211" stroke="black"/>
<path id="Vector 33" d="M1106 176L1127 211" stroke="black"/>
<path id="Vector 34" d="M1146 176L1126 211" stroke="black"/>
<path id="Vector 35" d="M1146 176L1167 211" stroke="black"/>
<path id="Vector 36" d="M1187 176L1167 211" stroke="black"/>
<path id="Vector 37" d="M1187 176L1207 211" stroke="black"/>
<path id="Vector 38" d="M1228 176L1207 211" stroke="black"/>
<path id="Vector 39" d="M1228 176L1248 211" stroke="black"/>
<path id="Vector 1_3" d="M251 177L230 210" stroke="black"/>
<path id="Vector 1_4" d="M251 177L270 210" stroke="black"/>
<path id="Vector 1_5" d="M292 177L270 210" stroke="black"/>
<path id="Vector 1_6" d="M292 177L312 210" stroke="black"/>
<path id="Vector 1_7" d="M332 177L312 210" stroke="black"/>
<path id="Vector 1_8" d="M332 177L352 210" stroke="black"/>
<path id="Vector 1_9" d="M374 177L352 210" stroke="black"/>
<path id="Vector 1_10" d="M374 177L394 210" stroke="black"/>
<path id="Vector 1_11" d="M414 177L394 210" stroke="black"/>
<path id="Vector 1_12" d="M455 177L435 210" stroke="black"/>
<path id="Vector 1_13" d="M414 177L435 210" stroke="black"/>
<path id="Vector 1_14" d="M455 177L475 210" stroke="black"/>
<path id="Vector 1_15" d="M495 177L475 210" stroke="black"/>
<path id="Vector 1_16" d="M495 177L517 210" stroke="black"/>
</g>
<g id="Group 4">
<path id="Vector 2" d="M189 211H1248" stroke="black" stroke-width="2"/>
<path id="Vector 3" d="M189 176H1248" stroke="black" stroke-width="2"/>
</g>
</g>
<g id="Columna 3">
<g id="Group 12_2">
<g id="Group 4_2">
<path id="Vector 2_2" d="M1248 177L1248 708" stroke="black" stroke-width="2"/>
<path id="Vector 3_2" d="M1268 177L1268 708" stroke="black" stroke-width="2"/>
</g>
</g>
<line id="Line 12" x1="1248" y1="176" x2="1269" y2="176" stroke="black" stroke-width="2"/>
<line id="Line 14" x1="1248" y1="211" x2="1268" y2="211" stroke="black" stroke-width="2"/>
<line id="Line 17" x1="1249" y1="244" x2="1269" y2="244" stroke="black" stroke-width="2"/>
<line id="Line 15" x1="1247.57" y1="210.752" x2="1267.57" y2="175.752" stroke="black"/>
<line id="Line 16" y1="-0.5" x2="40.3113" y2="-0.5" transform="matrix(0.496139 0.868243 0.868243 -0.496139 1249 210)" stroke="black"/>
<line id="Line 18" y1="-1" x2="20" y2="-1" transform="matrix(1 -8.74228e-08 -8.74228e-08 -1 1247 279)" stroke="black" stroke-width="2"/>
<line id="Line 19" x1="1247.57" y1="280.752" x2="1267.57" y2="245.752" stroke="black"/>
<line id="Line 20" x1="1249" y1="316" x2="1269" y2="316" stroke="black" stroke-width="2"/>
<line id="Line 21" y1="-0.5" x2="40.3113" y2="-0.5" transform="matrix(0.496139 0.868243 0.868243 -0.496139 1249 282)" stroke="black"/>
<line id="Line 22" y1="-1" x2="20" y2="-1" transform="matrix(1 -8.74228e-08 -8.74228e-08 -1 1247 351)" stroke="black" stroke-width="2"/>
<line id="Line 23" x1="1247.57" y1="352.752" x2="1267.57" y2="317.752" stroke="black"/>
<line id="Line 24" x1="1249" y1="386" x2="1269" y2="386" stroke="black" stroke-width="2"/>
<line id="Line 25" y1="-0.5" x2="40.3113" y2="-0.5" transform="matrix(0.496139 0.868243 0.868243 -0.496139 1249 352)" stroke="black"/>
<line id="Line 26" y1="-1" x2="20" y2="-1" transform="matrix(1 -8.74228e-08 -8.74228e-08 -1 1247 421)" stroke="black" stroke-width="2"/>
<line id="Line 27" x1="1247.57" y1="422.752" x2="1267.57" y2="387.752" stroke="black"/>
<line id="Line 28" x1="1249" y1="457" x2="1269" y2="457" stroke="black" stroke-width="2"/>
<line id="Line 29" y1="-0.5" x2="40.3113" y2="-0.5" transform="matrix(0.496139 0.868243 0.868243 -0.496139 1249 423)" stroke="black"/>
<line id="Line 30" y1="-1" x2="20" y2="-1" transform="matrix(1 -8.74228e-08 -8.74228e-08 -1 1247 492)" stroke="black" stroke-width="2"/>
<line id="Line 31" x1="1247.57" y1="493.752" x2="1267.57" y2="458.752" stroke="black"/>
<line id="Line 32" x1="1249" y1="527" x2="1269" y2="527" stroke="black" stroke-width="2"/>
<line id="Line 33" y1="-0.5" x2="40.3113" y2="-0.5" transform="matrix(0.496139 0.868243 0.868243 -0.496139 1249 493)" stroke="black"/>
<line id="Line 34" y1="-1" x2="20" y2="-1" transform="matrix(1 -8.74228e-08 -8.74228e-08 -1 1247 562)" stroke="black" stroke-width="2"/>
<line id="Line 35" x1="1247.57" y1="563.752" x2="1267.57" y2="528.752" stroke="black"/>
<line id="Line 36" x1="1249" y1="599" x2="1269" y2="599" stroke="black" stroke-width="2"/>
<line id="Line 37" y1="-0.5" x2="40.3113" y2="-0.5" transform="matrix(0.496139 0.868243 0.868243 -0.496139 1249 565)" stroke="black"/>
<line id="Line 38" y1="-1" x2="20" y2="-1" transform="matrix(1 -8.74228e-08 -8.74228e-08 -1 1247 634)" stroke="black" stroke-width="2"/>
<line id="Line 39" x1="1247.57" y1="635.752" x2="1267.57" y2="600.752" stroke="black"/>
<line id="Line 40" x1="1249" y1="671" x2="1269" y2="671" stroke="black" stroke-width="2"/>
<line id="Line 41" y1="-0.5" x2="40.3113" y2="-0.5" transform="matrix(0.496139 0.868243 0.868243 -0.496139 1249 637)" stroke="black"/>
<line id="Line 42" y1="-1" x2="20" y2="-1" transform="matrix(1 -8.74228e-08 -8.74228e-08 -1 1247 706)" stroke="black" stroke-width="2"/>
<line id="Line 43" x1="1247.57" y1="707.752" x2="1267.57" y2="672.752" stroke="black"/>
</g>
<g id="Columna 4">
<g id="Group 12_3">
<g id="Group 4_3">
<path id="Vector 2_3" d="M189 177L189 708" stroke="black" stroke-width="2"/>
<path id="Vector 3_3" d="M169 177L169 708" stroke="black" stroke-width="2"/>
</g>
</g>
<line id="Line 12_2" y1="-1" x2="21" y2="-1" transform="matrix(-1 0 0 1 189 177)" stroke="black" stroke-width="2"/>
<line id="Line 14_2" y1="-1" x2="20" y2="-1" transform="matrix(-1 8.74228e-08 8.74228e-08 1 189 212)" stroke="black" stroke-width="2"/>
<line id="Line 17_2" y1="-1" x2="20" y2="-1" transform="matrix(-1 8.74228e-08 8.74228e-08 1 188 245)" stroke="black" stroke-width="2"/>
<line id="Line 15_2" y1="-0.5" x2="40.3113" y2="-0.5" transform="matrix(-0.496139 -0.868243 -0.868243 0.496139 189 211)" stroke="black"/>
<line id="Line 16_2" x1="188.434" y1="210.248" x2="168.434" y2="245.248" stroke="black"/>
<line id="Line 18_2" x1="190" y1="280" x2="170" y2="280" stroke="black" stroke-width="2"/>
<line id="Line 19_2" y1="-0.5" x2="40.3113" y2="-0.5" transform="matrix(-0.496139 -0.868243 -0.868243 0.496139 189 281)" stroke="black"/>
<line id="Line 20_2" y1="-1" x2="20" y2="-1" transform="matrix(-1 8.74228e-08 8.74228e-08 1 188 317)" stroke="black" stroke-width="2"/>
<line id="Line 21_2" x1="188.434" y1="282.248" x2="168.434" y2="317.248" stroke="black"/>
<line id="Line 22_2" x1="190" y1="352" x2="170" y2="352" stroke="black" stroke-width="2"/>
<line id="Line 23_2" y1="-0.5" x2="40.3113" y2="-0.5" transform="matrix(-0.496139 -0.868243 -0.868243 0.496139 189 353)" stroke="black"/>
<line id="Line 24_2" y1="-1" x2="20" y2="-1" transform="matrix(-1 8.74228e-08 8.74228e-08 1 188 387)" stroke="black" stroke-width="2"/>
<line id="Line 25_2" x1="188.434" y1="352.248" x2="168.434" y2="387.248" stroke="black"/>
<line id="Line 26_2" x1="190" y1="422" x2="170" y2="422" stroke="black" stroke-width="2"/>
<line id="Line 27_2" y1="-0.5" x2="40.3113" y2="-0.5" transform="matrix(-0.496139 -0.868243 -0.868243 0.496139 189 423)" stroke="black"/>
<line id="Line 28_2" y1="-1" x2="20" y2="-1" transform="matrix(-1 8.74228e-08 8.74228e-08 1 188 458)" stroke="black" stroke-width="2"/>
<line id="Line 29_2" x1="188.434" y1="423.248" x2="168.434" y2="458.248" stroke="black"/>
<line id="Line 30_2" x1="190" y1="493" x2="170" y2="493" stroke="black" stroke-width="2"/>
<line id="Line 31_2" y1="-0.5" x2="40.3113" y2="-0.5" transform="matrix(-0.496139 -0.868243 -0.868243 0.496139 189 494)" stroke="black"/>
<line id="Line 32_2" y1="-1" x2="20" y2="-1" transform="matrix(-1 8.74228e-08 8.74228e-08 1 188 528)" stroke="black" stroke-width="2"/>
<line id="Line 33_2" x1="188.434" y1="493.248" x2="168.434" y2="528.248" stroke="black"/>
<line id="Line 34_2" x1="190" y1="563" x2="170" y2="563" stroke="black" stroke-width="2"/>
<line id="Line 35_2" y1="-0.5" x2="40.3113" y2="-0.5" transform="matrix(-0.496139 -0.868243 -0.868243 0.496139 189 564)" stroke="black"/>
<line id="Line 36_2" y1="-1" x2="20" y2="-1" transform="matrix(-1 8.74228e-08 8.74228e-08 1 188 600)" stroke="black" stroke-width="2"/>
<line id="Line 37_2" x1="188.434" y1="565.248" x2="168.434" y2="600.248" stroke="black"/>
<line id="Line 38_2" x1="190" y1="635" x2="170" y2="635" stroke="black" stroke-width="2"/>
<line id="Line 39_2" y1="-0.5" x2="40.3113" y2="-0.5" transform="matrix(-0.496139 -0.868243 -0.868243 0.496139 189 636)" stroke="black"/>
<line id="Line 40_2" y1="-1" x2="20" y2="-1" transform="matrix(-1 8.74228e-08 8.74228e-08 1 188 672)" stroke="black" stroke-width="2"/>
<line id="Line 41_2" x1="188.434" y1="637.248" x2="168.434" y2="672.248" stroke="black"/>
<line id="Line 42_2" x1="190" y1="707" x2="170" y2="707" stroke="black" stroke-width="2"/>
<line id="Line 43_2" y1="-0.5" x2="40.3113" y2="-0.5" transform="matrix(-0.496139 -0.868243 -0.868243 0.496139 189 708)" stroke="black"/>
</g>
<g id="marco">
<line id="Line 46" x1="1336" y1="700.5" x2="1436" y2="700.5" stroke="black"/>
<line id="Line 47" x1="1335.5" y1="700" x2="1335.5" y2="708" stroke="black"/>
<line id="Line 48" y1="-0.5" x2="100" y2="-0.5" transform="matrix(-1 0 0 1 101 701)" stroke="black"/>
<line id="Line 49" y1="-0.5" x2="8" y2="-0.5" transform="matrix(4.37114e-08 1 1 -4.37114e-08 102 700)" stroke="black"/>
<line id="Line 50" x1="1435.5" y1="701" x2="1435.5" y2="1" stroke="black"/>
<line id="Line 51" x1="0.500061" y1="701" x2="0.50003" y2="1" stroke="black"/>
<line id="Line 52" y1="0.5" x2="1436" y2="0.5" stroke="black"/>
</g>
<rect id="Rectangle 50_2" x="96" y="707" width="1245" height="20" fill="white" stroke="black" stroke-width="2"/>
</g>
</svg>
