<svg width="615" height="68" viewBox="0 0 615 68" fill="none" xmlns="http://www.w3.org/2000/svg">
<path d="M32.5 63.5C34.656 63.5 36.6305 62.9183 38.0807 61.9516C39.5273 60.9871 40.5 59.5999 40.5 58C40.5 56.4001 39.5273 55.0129 38.0807 54.0484C36.6305 53.0817 34.656 52.5 32.5 52.5C30.344 52.5 28.3695 53.0817 26.9193 54.0484C25.4727 55.0129 24.5 56.4001 24.5 58C24.5 59.5999 25.4727 60.9871 26.9193 61.9516C28.3695 62.9183 30.344 63.5 32.5 63.5Z" fill="white" stroke="black"/>
<path d="M11.5 63.5C13.656 63.5 15.6305 62.9183 17.0807 61.9516C18.5273 60.9871 19.5 59.5999 19.5 58C19.5 56.4001 18.5273 55.0129 17.0807 54.0484C15.6305 53.0817 13.656 52.5 11.5 52.5C9.34399 52.5 7.36947 53.0817 5.91935 54.0484C4.47272 55.0129 3.5 56.4001 3.5 58C3.5 59.5999 4.47272 60.9871 5.91935 61.9516C7.36947 62.9183 9.34399 63.5 11.5 63.5Z" fill="white" stroke="black"/>
<path d="M32.5 15.5C34.656 15.5 36.6305 14.9183 38.0807 13.9516C39.5273 12.9871 40.5 11.5999 40.5 10C40.5 8.4001 39.5273 7.01286 38.0807 6.04844C36.6305 5.08169 34.656 4.5 32.5 4.5C30.344 4.5 28.3695 5.08169 26.9193 6.04844C25.4727 7.01286 24.5 8.4001 24.5 10C24.5 11.5999 25.4727 12.9871 26.9193 13.9516C28.3695 14.9183 30.344 15.5 32.5 15.5Z" fill="white" stroke="black"/>
<path d="M11.5 15.5C13.656 15.5 15.6305 14.9183 17.0807 13.9516C18.5273 12.9871 19.5 11.5999 19.5 10C19.5 8.4001 18.5273 7.01286 17.0807 6.04844C15.6305 5.08169 13.656 4.5 11.5 4.5C9.34399 4.5 7.36947 5.08169 5.91935 6.04844C4.47272 7.01286 3.5 8.4001 3.5 10C3.5 11.5999 4.47272 12.9871 5.91935 13.9516C7.36947 14.9183 9.34399 15.5 11.5 15.5Z" fill="white" stroke="black"/>
<rect x="3" y="10" width="38" height="48" fill="white"/>
<rect x="3" y="4" width="8" height="60" fill="white"/>
<rect x="33" y="4" width="8" height="60" fill="white"/>
<line x1="33" y1="63.5" x2="43" y2="63.5" stroke="black"/>
<line x1="33" y1="4.5" x2="43" y2="4.5" stroke="black"/>
<line x1="1" y1="63.5" x2="11" y2="63.5" stroke="black"/>
<line x1="1" y1="4.5" x2="11" y2="4.5" stroke="black"/>
<line y1="67.5" x2="44" y2="67.5" stroke="black"/>
<line y1="0.5" x2="44" y2="0.5" stroke="black"/>
<line x1="43.5" y1="68" x2="43.5" y2="63" stroke="black"/>
<line x1="43.5" y1="5" x2="43.5" stroke="black"/>
<line x1="0.5" y1="68" x2="0.5" y2="63" stroke="black"/>
<line x1="0.5" y1="5" x2="0.5" stroke="black"/>
<line x1="24.5" y1="58" x2="24.5" y2="10" stroke="black"/>
<line x1="19.5" y1="58" x2="19.5" y2="10" stroke="black"/>
<path d="M603.5 63.5C605.656 63.5 607.631 62.9183 609.081 61.9516C610.527 60.9871 611.5 59.5999 611.5 58C611.5 56.4001 610.527 55.0129 609.081 54.0484C607.631 53.0817 605.656 52.5 603.5 52.5C601.344 52.5 599.369 53.0817 597.919 54.0484C596.473 55.0129 595.5 56.4001 595.5 58C595.5 59.5999 596.473 60.9871 597.919 61.9516C599.369 62.9183 601.344 63.5 603.5 63.5Z" fill="white" stroke="black"/>
<path d="M603.5 15.5C605.656 15.5 607.631 14.9183 609.081 13.9516C610.527 12.9871 611.5 11.5999 611.5 10C611.5 8.4001 610.527 7.01286 609.081 6.04844C607.631 5.08169 605.656 4.5 603.5 4.5C601.344 4.5 599.369 5.08169 597.919 6.04844C596.473 7.01286 595.5 8.4001 595.5 10C595.5 11.5999 596.473 12.9871 597.919 13.9516C599.369 14.9183 601.344 15.5 603.5 15.5Z" fill="white" stroke="black"/>
<rect x="574" y="10" width="38" height="48" fill="white"/>
<rect x="604" y="4" width="8" height="60" fill="white"/>
<line x1="604" y1="63.5" x2="614" y2="63.5" stroke="black"/>
<line x1="604" y1="4.5" x2="614" y2="4.5" stroke="black"/>
<line x1="571" y1="67.5" x2="615" y2="67.5" stroke="black"/>
<line x1="614.5" y1="68" x2="614.5" y2="63" stroke="black"/>
<line x1="614.5" y1="5" x2="614.5" stroke="black"/>
<line x1="595.5" y1="58" x2="595.5" y2="10" stroke="black"/>
<line x1="44" y1="67.5" x2="613" y2="67.5001" stroke="black"/>
<line x1="44" y1="63.5" x2="604" y2="63.5" stroke="black"/>
<line x1="44" y1="4.5" x2="601" y2="4.5" stroke="black"/>
<line x1="44" y1="0.5" x2="615" y2="0.49995" stroke="black"/>
</svg>
