<svg width="28" height="30" viewBox="0 0 28 30" fill="none" xmlns="http://www.w3.org/2000/svg">
<ellipse cx="13.875" cy="14.5918" rx="13.875" ry="14.5918" fill="black"/>
<g clip-path="url(#clip0_28_115)">
<path d="M9.27695 22.4347H5.82507V11.3532H9.27695V22.4347ZM7.54915 9.84162C6.44535 9.84162 5.55005 8.9302 5.55005 7.82983C5.55005 7.30129 5.76067 6.79439 6.13557 6.42065C6.51048 6.04691 7.01896 5.83694 7.54915 5.83694C8.07935 5.83694 8.58783 6.04691 8.96273 6.42065C9.33764 6.79439 9.54826 7.30129 9.54826 7.82983C9.54826 8.9302 8.65258 9.84162 7.54915 9.84162ZM22.1962 22.4347H18.7518V17.0403C18.7518 15.7547 18.7258 14.106 16.9571 14.106C15.1624 14.106 14.8874 15.5028 14.8874 16.9477V22.4347H11.4392V11.3532H14.7499V12.8649H14.7982C15.259 11.9942 16.3847 11.0754 18.0642 11.0754C21.5577 11.0754 22.2 13.3687 22.2 16.3475V22.4347H22.1962Z" fill="white"/>
</g>
<defs>
<clipPath id="clip0_28_115">
<rect width="16.6499" height="18.9693" fill="white" transform="translate(5.55005 5.83676)"/>
</clipPath>
</defs>
</svg>
